<svg viewBox="0 0 200 200" xmlns="http://www.w3.org/2000/svg">
  <path d="M 100.0,5.0 L 84.9,33.7 L 58.8,14.4 L 57.6,46.8 L 25.7,40.8 L 38.7,70.5 L 7.4,78.9 L 32.0,100.0 L 7.4,121.1 L 38.7,129.5 L 25.7,159.2 L 57.6,153.2 L 58.8,185.6 L 84.9,166.3 L 100.0,195.0 L 115.1,166.3 L 141.2,185.6 L 142.4,153.2 L 174.3,159.2 L 161.3,129.5 L 192.6,121.1 L 168.0,100.0 L 192.6,78.9 L 161.3,70.5 L 174.3,40.8 L 142.4,46.8 L 141.2,14.4 L 115.1,33.7 Z"
        fill="#FFD400" stroke="#111111" stroke-width="5" stroke-linejoin="round"/>
  <circle cx="100" cy="100" r="66" fill="#FFF7E6" stroke="#111111" stroke-width="4"/>

  <polygon points="88,48 118,48 98,96 122,96 72,168 88,104 62,104"
           fill="#E8342A" stroke="#111111" stroke-width="4" stroke-linejoin="round" opacity="0.9"/>
  <polygon points="70,40 100,40 80,88 104,88 54,160 70,96 44,96"
           fill="#FFD400" stroke="#111111" stroke-width="4" stroke-linejoin="round"/>

  <g transform="translate(128,38) rotate(12)">
    <rect x="-24" y="-14" width="52" height="30" rx="4" fill="#2453D6" stroke="#111111" stroke-width="4"/>
    <text x="1" y="8" font-family="Impact, Haettenschweiler, 'Arial Narrow Bold', sans-serif"
          font-size="20" fill="#FFF7E6" text-anchor="middle">AD</text>
  </g>
  <path d="M108,30 L120,44 L112,50 L128,66" fill="none" stroke="#FFF7E6" stroke-width="3" stroke-linecap="round"/>
  <circle cx="150" cy="30" r="4" fill="#FFF7E6" stroke="#111111" stroke-width="2"/>
  <circle cx="160" cy="48" r="3" fill="#FFF7E6" stroke="#111111" stroke-width="2"/>
  <circle cx="142" cy="18" r="3" fill="#FFF7E6" stroke="#111111" stroke-width="2"/>
</svg>
